<svg xmlns="http://www.w3.org/2000/svg" width="22.819" height="21.689" viewBox="0 0 22.819 21.689"><defs><style>.a{fill:#4a77a6;}</style></defs><g transform="translate(0 -12.676)"><g transform="translate(0 12.675)"><g transform="translate(0 0)"><path class="a" d="M22.436,22.312,12.2,12.983a1.165,1.165,0,0,0-1.576,0L.383,22.312a1.17,1.17,0,0,0,.788,2.035H2.807v9.347a.671.671,0,0,0,.671.671H9.09a.671.671,0,0,0,.671-.671V28.019h3.3v5.675a.671.671,0,0,0,.671.671h5.612a.671.671,0,0,0,.671-.671V24.347h1.636a1.17,1.17,0,0,0,.788-2.035Z" transform="translate(0 -12.675)"/></g></g><g transform="translate(15.33 14.015)"><path class="a" d="M348.48,42.73h-4.507l5.178,4.708V43.4A.671.671,0,0,0,348.48,42.73Z" transform="translate(-343.973 -42.73)"/></g></g></svg>