<svg xmlns="http://www.w3.org/2000/svg" xmlns:xlink="http://www.w3.org/1999/xlink" width="71.122" height="49.73" viewBox="0 0 71.122 49.73"><defs><style>.a{fill:url(#a);}</style><linearGradient id="a" x1="-0.186" y1="0.559" x2="0.5" y2="1" gradientUnits="objectBoundingBox"><stop offset="0" stop-color="#4a77a6"/><stop offset="1"/></linearGradient></defs><g transform="translate(0 -77)"><g transform="translate(37.784 77)"><path class="a" d="M300.564,98.383A16.568,16.568,0,0,0,289.4,93.408c-.02-.264-.035-.629-.035-1.128,0-2.044,1.554-8.288,2.534-11.744l1-3.536H280.734l-.815,1.313C279.6,78.834,272,91.287,272,110.061a16.669,16.669,0,1,0,28.564-11.678Zm-11.894,22.791a11.125,11.125,0,0,1-11.113-11.113,61.751,61.751,0,0,1,6.364-27.5h1.685c-.8,3.137-1.8,7.507-1.8,9.724a9.017,9.017,0,0,0,.768,4.352,4.448,4.448,0,0,0,4.193,2.316l.121,0a11.112,11.112,0,0,1-.22,22.223Z" transform="translate(-272 -77)"/></g><g transform="translate(0 77)"><path class="a" d="M28.564,98.383A16.568,16.568,0,0,0,17.4,93.408c-.02-.264-.035-.629-.035-1.128,0-2.044,1.554-8.288,2.534-11.744L20.9,77H8.734l-.815,1.313C7.6,78.834,0,91.287,0,110.061A16.669,16.669,0,1,0,28.564,98.383ZM16.669,121.173A11.125,11.125,0,0,1,5.556,110.061a61.75,61.75,0,0,1,6.364-27.5h1.685c-.8,3.137-1.8,7.507-1.8,9.724a9.017,9.017,0,0,0,.768,4.352,4.448,4.448,0,0,0,4.193,2.316l.121,0a11.112,11.112,0,0,1-.22,22.223Z" transform="translate(0 -77)"/></g></g></svg>