<svg xmlns="http://www.w3.org/2000/svg" width="22.584" height="24.197" viewBox="0 0 22.584 24.197"><defs><style>.a{fill:#fff;}</style></defs><path class="a" d="M22.181,11.292h-3.63V2.016A2.019,2.019,0,0,0,16.535,0H3.226A1.613,1.613,0,0,0,1.613,1.613V6.453H.4a.4.4,0,0,0-.4.4v2.42a.4.4,0,0,0,.4.4h1.21v4.436a.4.4,0,0,0,.4.4H4.033v8.066A1.613,1.613,0,0,0,5.646,24.2H18.954a1.613,1.613,0,0,0,0-3.226h-.4V14.518h3.63a.4.4,0,0,0,.4-.4V11.7A.4.4,0,0,0,22.181,11.292ZM2.42,1.613a.807.807,0,0,1,1.613,0V6.453H2.42ZM.807,7.259H12.1a.4.4,0,0,0,.4-.352l1.39,1.158L12.5,9.224a.4.4,0,0,0-.4-.352H.807ZM2.42,13.712V9.679H4.033v4.033Zm17.341,8.872a.807.807,0,0,1-.807.807H7.043a1.6,1.6,0,0,0,.217-.807v-.807h11.7a.807.807,0,0,1,.807.807Zm-2.016-1.613H6.856a.4.4,0,0,0-.4.4v1.21a.807.807,0,0,1-1.613,0V9.679H11.7v.4a.4.4,0,0,0,.662.31l2.42-2.016a.4.4,0,0,0,0-.62L12.357,5.74a.4.4,0,0,0-.662.31v.4H4.839V1.613A1.6,1.6,0,0,0,4.616.807H16.535a1.21,1.21,0,0,1,1.21,1.21v9.276H10.889v-.4a.4.4,0,0,0-.662-.31L7.807,12.6a.4.4,0,0,0,0,.62l2.42,2.016a.4.4,0,0,0,.662-.31v-.4h6.856Zm4.033-7.259H10.485a.4.4,0,0,0-.151.031,1.4,1.4,0,0,0-.123.081.425.425,0,0,0-.036.046.382.382,0,0,0-.05.074.353.353,0,0,0-.019.059.348.348,0,0,0-.02.061L8.7,12.905l1.39-1.158a.348.348,0,0,0,.02.061.335.335,0,0,0,.019.059.374.374,0,0,0,.05.074.425.425,0,0,0,.036.046,1.4,1.4,0,0,0,.123.081.391.391,0,0,0,.152.031H21.777Zm0,0"/><path class="a" d="M128,48h4.033v.807H128Zm0,0" transform="translate(-121.547 -45.58)"/><path class="a" d="M128,80h4.033v.807H128Zm0,0" transform="translate(-121.547 -75.967)"/><path class="a" d="M160,352h8.066v.807H160Zm0,0" transform="translate(-151.934 -334.255)"/><path class="a" d="M160,384h8.066v.807H160Zm0,0" transform="translate(-151.934 -364.642)"/><path class="a" d="M272,320h2.42v.807H272Zm0,0" transform="translate(-258.288 -303.869)"/></svg>