<svg xmlns="http://www.w3.org/2000/svg" width="22.819" height="20.429" viewBox="0 0 22.819 20.429"><defs><style>.a{fill:#4a77a6;}</style></defs><g transform="translate(0 -1.512)"><path class="a" d="M0,4.913c0-.439.343-.432.343-.432,1.457,0,12.649,0,14.6,0,.636,0,1.048,0,1.048,0V2.008c0-.957.718-.233.718-.233s5.37,4.145,5.937,4.71a.533.533,0,0,1-.048.8L16.848,12.14s-.685.721-.684-.06,0-2.682,0-2.682-.46,0-1.167,0c-2.023,0-13.09,0-14.589,0C.407,9.4,0,9.5,0,8.887S0,5.354,0,4.913Z" transform="translate(0)"/><path class="a" d="M22.817,16.93c0-.442-.343-.432-.343-.432-1.454,0-12.649,0-14.6,0-.635,0-1.048,0-1.048,0V14.023c0-.954-.716-.235-.716-.235S.737,17.933.169,18.5a.539.539,0,0,0,.048.8l5.751,4.858s.683.719.683-.065,0-2.68,0-2.68.46,0,1.169,0c2.023,0,13.092,0,14.588,0,0,0,.409.108.411-.51S22.817,17.372,22.817,16.93Z" transform="translate(0 -2.519)"/></g></svg>